{"title":"First Dates S07E04","uid":15716779,"size":1236942793,"categoryP":"video","categoryS":"tv_shows","magnet":"?xt=urn:btih:b4a133cad721a4eb75256a6174ef617b3f2e14db&amp;dn=First+Dates+S07E04&amp;tr=udp%3A%2F%2Ftracker.leechers-paradise.org%3A6969&amp;tr=udp%3A%2F%2Fzer0day.ch%3A1337&amp;tr=udp%3A%2F%2Fopen.demonii.com%3A1337&amp;tr=udp%3A%2F%2Ftracker.coppersurfer.tk%3A6969&amp;tr=udp%3A%2F%2Fexodus.desync.com%3A6969","seeders":5,"leechers":2,"uploader":"FreshTea","files":2,"time":1472634065,"description":"Channel 4 First Dates S07E04 WebRip\r\n\r\nVideo a little blocky in some places but overall very watchable\r\n\r\nV:7/10 A:10/10\r\n\r\n\r\nFormat                         : MPEG-4\r\nFormat profile                 : Base Media / Version 2\r\nCodec ID                       : mp42 (mp41/isom)\r\nFile size                      : 1.15 GiB\r\nDuration                       : 47mn 35s\r\nOverall bit rate               : 3 463 Kbps\r\n\r\n\r\nVideo\r\nID                             : 1\r\nFormat                         : AVC\r\nFormat/Info                    : Advanced Video Codec\r\nFormat profile                 :   \r\nFormat settings, CABAC         : No\r\nFormat settings, ReFrames      : 2 frames\r\nFormat settings, GOP           : M=1, N=60\r\nCodec ID                       : avc1\r\nCodec ID/Info                  : Advanced Video Coding\r\nDuration                       : 47mn 35s\r\nSource duration                : 47mn 35s\r\nBit rate                       : 3 264 Kbps\r\nWidth                          : 854 pixels\r\nHeight                         : 480 pixels\r\nDisplay aspect ratio           : 16:9\r\nFrame rate mode                : Constant\r\nFrame rate                     : 29.970 (29970/1000) fps\r\nColor space                    : YUV\r\nChroma subsampling             : 4:2:0\r\nBit depth                      : 8 bits\r\nScan type                      : Progressive\r\nBits/(Pixel*Frame)             : 0.266\r\nStream size                    : 1.09 GiB (94%)\r\nSource stream size             : 1.09 GiB (94%)\r\nmdhd_Duration                  : 2855486\r\n\r\nAudio\r\nID                             : 2\r\nFormat                         : AAC\r\nFormat/Info                    : Advanced Audio Codec\r\nFormat profile                 : LC\r\nCodec ID                       : 40\r\nDuration                       : 47mn 35s\r\nBit rate mode                  : Constant\r\nBit rate                       : 192 Kbps\r\nChannel(s)                     : 2 channels\r\nChannel positions              : Front: L R\r\nSampling rate                  : 48.0 KHz\r\nFrame rate                     : 46.875 fps (1024 spf)\r\nCompression mode               : Lossy\r\nStream size                    : 66.7 MiB (6%)\r\nmdhd_Duration                  : 2855509","torrent":{"xt":"urn:btih:b4a133cad721a4eb75256a6174ef617b3f2e14db","amp;dn":"First+Dates+S07E04","amp;tr":["udp%3A%2F%2Ftracker.leechers-paradise.org%3A6969","udp%3A%2F%2Fzer0day.ch%3A1337","udp%3A%2F%2Fopen.demonii.com%3A1337","udp%3A%2F%2Ftracker.coppersurfer.tk%3A6969","udp%3A%2F%2Fexodus.desync.com%3A6969"],"infoHash":"b4a133cad721a4eb75256a6174ef617b3f2e14db","infoHashBuffer":{"type":"Buffer","data":[180,161,51,202,215,33,164,235,117,37,106,97,116,239,97,123,63,46,20,219]},"announce":[],"urlList":[]}}